<svg width="100" height="100" viewBox="0 0 100 100" xmlns="http://www.w3.org/2000/svg">
  <title>SIIT</title>
  <g id="group-radio"
     stroke-linecap="square" stroke-miterlimit="100"
     stroke="none" fill="Orange"
  >
    <path id="radio-1"
          d="M50,50 m-10,-20 a20,20,0,0,1,20,0 l8,-30 l-36,0 l8,30"
          transform="rotate(45,50,50)"
    />
    <path id="radio-2"
          d="M50,50 m-10,-20 a20,20,0,0,1,20,0 l8,-30 l-36,0 l8,30"
          transform="rotate(135,50,50)"
    />
    <path id="radio-3"
          d="M50,50 m-10,-20 a20,20,0,0,1,20,0 l8,-30 l-36,0 l8,30"
          transform="rotate(-45,50,50)"
    />
    <path id="radio-4"
          d="M50,50 m-10,-20 a20,20,0,0,1,20,0 l8,-30 l-36,0 l8,30"
          transform="rotate(-135,50,50)"
    />
  </g>
  <g id="group-source">
    <circle id="source" cx="50" cy="50" r="12" fill="Orange"/>
  </g>
</svg>