<svg width="120" height="120" viewBox="0 0 120 120" xmlns="http://www.w3.org/2000/svg">
  <title>UfoTV</title>
  <g id="group-back">
    <rect id="back-global" x="0" y="0" width="100%" height="100%" fill="#3f3f3f" stroke="none"/>
  </g>
  <g id="group-hive"
     stroke-linecap="square" stroke-miterlimit="100"
     stroke="OrangeRed" stroke-width="1" fill="#fefefe"
  >
    <path id="hive-middle"
          d="M60,60 m-10,-17 l20,0 l10,17 l-10,17 l-20,0 l-10,-17 l10,-17"
    />
    <path id="hive-t"
          d="M60,26 m-10,-17 l20,0 l10,17 l-10,17 l-20,0 l-10,-17 l10,-17"
    />
    <path id="hive-rt"
          d="M90,43 m-10,-17 l20,0 l10,17 l-10,17 l-20,0 l-10,-17 l10,-17"
    />
    <path id="hive-rb"
          d="M90,77 m-10,-17 l20,0 l10,17 l-10,17 l-20,0 l-10,-17 l10,-17"
    />
    <path id="hive-b"
          d="M60,94 m-10,-17 l20,0 l10,17 l-10,17 l-20,0 l-10,-17 l10,-17"
    />
    <path id="hive-lb"
          d="M30,77 m-10,-17 l20,0 l10,17 l-10,17 l-20,0 l-10,-17 l10,-17"
    />
    <path id="hive-lt"
          d="M30,43 m-10,-17 l20,0 l10,17 l-10,17 l-20,0 l-10,-17 l10,-17"
    />
  </g>
  <g id="group-point"
     stroke-linecap="square" stroke-miterlimit="100"
     stroke="none"
  >
    <circle cx="50" cy="43" r="5" fill="RoyalBlue"/>
    <circle cx="70" cy="43" r="7" fill="BlueViolet"/>
    <circle cx="40" cy="60" r="7" fill="BlueViolet"/>
    <circle cx="80" cy="60" r="5" fill="RoyalBlue"/>
    <circle cx="50" cy="77" r="5" fill="RoyalBlue"/>
    <circle cx="70" cy="77" r="7" fill="BlueViolet"/>
  </g>
  <g id="group-title">
    <text id="title-ufotv" x="60" y="63" text-anchor="middle"
          font-family="Inter,Arial,sans-serif" font-size="9"
          fill="OrangeRed"
    >
      UfoTV
    </text>
  </g>
</svg>