<svg width="104" height="104" viewBox="0 0 104 104" xmlns="http://www.w3.org/2000/svg">
  <title>UfoTV</title>
  <g id="group-back">
    <rect id="back-global" x="0" y="0" width="100%" height="100%" fill="#3f3f3f" stroke="none"/>
  </g>
  <g id="group-hive"
     stroke-linecap="square" stroke-miterlimit="100"
     stroke="OrangeRed" stroke-width="1" fill="#fefefe"
  >
    <path id="hive-t"
          d="M52,52 m-10,-17 l20,0 l10,17 l-10,17 l-20,0 l-10,-17 l10,-17"
          transform="translate(0,-34)"
    />
    <path id="hive-rt"
          d="M52,52 m-10,-17 l20,0 l10,17 l-10,17 l-20,0 l-10,-17 l10,-17"
          transform="translate(30,-17)"
    />
    <path id="hive-rb"
          d="M52,52 m-10,-17 l20,0 l10,17 l-10,17 l-20,0 l-10,-17 l10,-17"
          transform="translate(30,17)"
    />
    <path id="hive-b"
          d="M52,52 m-10,-17 l20,0 l10,17 l-10,17 l-20,0 l-10,-17 l10,-17"
          transform="translate(0,34)"
    />
    <path id="hive-lt"
          d="M52,52 m-10,-17 l20,0 l10,17 l-10,17 l-20,0 l-10,-17 l10,-17"
          transform="translate(-30,-17)"
    />
    <path id="hive-lb"
          d="M52,52 m-10,-17 l20,0 l10,17 l-10,17 l-20,0 l-10,-17 l10,-17"
          transform="translate(-30,17)"
    />
  </g>
  <g id="group-point"
     stroke-linecap="square" stroke-miterlimit="100"
     stroke="none"
  >
    <circle cx="42" cy="35" r="5" fill="RoyalBlue"/>
    <circle cx="62" cy="35" r="8" fill="BlueViolet"/>
    <circle cx="32" cy="52" r="8" fill="BlueViolet"/>
    <circle cx="72" cy="52" r="5" fill="RoyalBlue"/>
    <circle cx="42" cy="69" r="5" fill="RoyalBlue"/>
    <circle cx="62" cy="69" r="8" fill="BlueViolet"/>
  </g>
</svg>