<svg width="100" height="100" viewBox="0 0 100 100" xmlns="http://www.w3.org/2000/svg">
  <title>TouSie</title>
  <g id="group-back">
    <rect id="back-global" x="0" y="0" width="100%" height="100%" fill="#3f3f3f" stroke="none"/>
  </g>
  <g id="group-hive"
     stroke-linecap="square" stroke-miterlimit="100"
     stroke="none" stroke-width="2" fill="Gold"
  >
    <path id="hive-t"
          d="M50,50 m-8,-13.6 l16,0 l8,13.6 l-8,13.6 l-16,0 l-8,-13.6 l8,-13.6"
          transform="translate(0,-34)"
    />
    <path id="hive-rt"
          d="M50,50 m-8,-13.6 l16,0 l8,13.6 l-8,13.6 l-16,0 l-8,-13.6 l8,-13.6"
          transform="translate(30,-17)"
    />
    <path id="hive-rb"
          d="M50,50 m-8,-13.6 l16,0 l8,13.6 l-8,13.6 l-16,0 l-8,-13.6 l8,-13.6"
          transform="translate(30,17)"
    />
    <path id="hive-b"
          d="M50,50 m-8,-13.6 l16,0 l8,13.6 l-8,13.6 l-16,0 l-8,-13.6 l8,-13.6"
          transform="translate(0,34)"
    />
    <path id="hive-lt"
          d="M50,50 m-8,-13.6 l16,0 l8,13.6 l-8,13.6 l-16,0 l-8,-13.6 l8,-13.6"
          transform="translate(-30,-17)"
    />
    <path id="hive-lb"
          d="M50,50 m-8,-13.6 l16,0 l8,13.6 l-8,13.6 l-16,0 l-8,-13.6 l8,-13.6"
          transform="translate(-30,17)"
    />
  </g>
  <g id="group-stock"
     stroke-linecap="square" stroke-miterlimit="100"
     stroke-width="3" fill="none"
  >
    <path id="stock-1"
          d="M50,50 m-20,5 l0,-10"
          stroke="red"
    />
    <path id="stock-2"
          d="M50,50 m-10,-5 l0,15"
          stroke="green"
    />
    <path id="stock-3"
          d="M50,50 m0,10 l0,-20"
          stroke="red"
    />
    <path id="stock-4"
          d="M50,50 m10,-10 l0,25"
          stroke="green"
    />
    <path id="stock-5"
          d="M50,50 m20,15 l0,-30"
          stroke="red"
    />
  </g>
</svg>